# xmcd
#
# Track frame offsets:
#	150
#	15250
#	26695
#	38837
#	52815
#	65090
#	77547
#	89665
#	98655
#	116207
#	131815
#	154052
#	166535
#	182020
#	194477
#	207957
#	218325
#	229230
#	242125
#	258790
#	282612
#	292367
#
# Disc length: 4083 seconds
#
# Revision: 1
# Processed by: cddbd v1.4PL0 Copyright (c) Steve Scherf et al.
# Submitted via: audiograbber 1.80
#
DISCID=380ff116
DTITLE=The Platters - 22 Greatest Hits
DYEAR=1900
DGENRE=
TTITLE0=The Great Pretender
TTITLE1=Smoke Gets In Your Eyes
TTITLE2=(You've Got) The Magic Touch
TTITLE3=Harbor Lights
TTITLE4=With This Ring
TTITLE5=I Love You A 1000 Times
TTITLE6=Heaven On Earth
TTITLE7=Sweet, Sweet Lovin'
TTITLE8=If I Had A Love
TTITLE9=Why
TTITLE10=Unchained Melody
TTITLE11=Twilight Time
TTITLE12=My Prayer
TTITLE13=Only You (And You Alone)
TTITLE14=I'm Sorry
TTITLE15=One In A Million
TTITLE16=Red Sails In The Sunset
TTITLE17=Washed Ashore (On A Lovely Island In The Sea)
TTITLE18=I Love You Because
TTITLE19=My Way
TTITLE20=Doesn't It Ring A Bell
TTITLE21=Alone In The Night
EXTD=
EXTT0=
EXTT1=
EXTT2=
EXTT3=
EXTT4=
EXTT5=
EXTT6=
EXTT7=
EXTT8=
EXTT9=
EXTT10=
EXTT11=
EXTT12=
EXTT13=
EXTT14=
EXTT15=
EXTT16=
EXTT17=
EXTT18=
EXTT19=
EXTT20=
EXTT21=
PLAYORDER=
